# xmcd CD database file
#
# Track frame offsets:
#	150
#	15673
#	27650
#	44688
#	56720
#	71343
#	84613
#	99933
#	111550
#
# Disc length: 1715 seconds
#
# Revision: 1
# Processed by: cddbd v1.5PL3 Copyright (c) Steve Scherf et al.
# Submitted via: CDex 1.50beta8
#
DISCID=7a06b109
DTITLE=GO・BANG'S - ハッスルはお好き?
DYEAR=1988
DGENRE=Pop
TTITLE0=愛をこめて、もっと! もっと!
TTITLE1=ハートアタックNO.1
TTITLE2=シャイリー・キャンディー
TTITLE3=バレラはおせっかち
TTITLE4=エレキ天国
TTITLE5=プリマドンナはお好き?
TTITLE6=麗しのミス・ゴージャス
TTITLE7=KISS・ME! KISS・ME!
TTITLE8=ピンガール
EXTD=YEAR: 1988
EXTT0=
EXTT1=
EXTT2=
EXTT3=
EXTT4=
EXTT5=
EXTT6=
EXTT7=
EXTT8=
PLAYORDER=
